<svg xmlns="http://www.w3.org/2000/svg" xmlns:xlink="http://www.w3.org/1999/xlink" viewBox="0,0,256,256" width="288px" height="288px" fill-rule="nonzero"><g fill="#02026f" fill-rule="nonzero" stroke="none" stroke-width="1" stroke-linecap="butt" stroke-linejoin="miter" stroke-miterlimit="10" stroke-dasharray="" stroke-dashoffset="0" font-family="none" font-weight="none" font-size="none" text-anchor="none" style="mix-blend-mode: normal"><g transform="scale(10.66667,10.66667)"><path d="M12,3c-5.523,0 -10,4.029 -10,9c0,0.966 0.17423,1.89462 0.49023,2.76563c0.273,0.752 0.34992,1.55889 0.16992,2.33789l-0.63281,2.74414c-0.15,0.65 0.3577,1.22461 0.9707,1.22461c0.104,0 0.21231,-0.01674 0.32031,-0.05273l2.58008,-0.85937c0.306,-0.102 0.62345,-0.15234 0.93945,-0.15234c0.379,0 0.75723,0.0728 1.11523,0.2168c1.236,0.497 2.60388,0.77539 4.04688,0.77539c5.523,0 10,-4.029 10,-9c0,-4.971 -4.477,-9 -10,-9zM12,5c4.411,0 8,3.14 8,7c0,3.86 -3.589,7 -8,7c-0.29063,0 -0.57976,-0.01384 -0.86523,-0.04102c-0.00258,-0.00025 -0.00523,0.00025 -0.00781,0c-0.07119,-0.00684 -0.1401,-0.02272 -0.21094,-0.03125c-0.21177,-0.02549 -0.42257,-0.05129 -0.63086,-0.0918c-0.1014,-0.01972 -0.20027,-0.05096 -0.30078,-0.07422c-0.17164,-0.03974 -0.34483,-0.0769 -0.51367,-0.12695c-0.15573,-0.04611 -0.30776,-0.1034 -0.46094,-0.1582c-0.12777,-0.04581 -0.25695,-0.08484 -0.38281,-0.13672c-0.566,-0.233 -1.17706,-0.33203 -1.78906,-0.33203c-0.22856,0 -0.45577,0.01054 -0.74805,0.06055c-0.27915,0.04249 -0.55466,0.10564 -0.82422,0.19531l-0.25781,0.08594c-0.01977,0.00625 -0.02665,0.00524 -0.04687,0.01172c-0.249,0.08 -0.48773,-0.14148 -0.42773,-0.39648c0.02786,-0.11835 0.03234,-0.21336 0.05469,-0.32617l0.01953,-0.08594c0.02834,-0.12262 0.03644,-0.24881 0.05664,-0.37305c0.02097,-0.14717 0.05672,-0.30916 0.06836,-0.44727c0.01576,-0.18905 0.01031,-0.37947 0.00781,-0.57031c-0.00508,-0.79347 -0.14649,-1.46197 -0.37109,-2.08008c-0.245,-0.676 -0.36914,-1.37703 -0.36914,-2.08203c0,-0.24125 0.01365,-0.47981 0.04102,-0.71484c0.41045,-3.52551 3.82367,-6.28516 7.95898,-6.28516z"></path></g></g></svg>