<?xml version="1.0" encoding="iso-8859-1"?>
<!-- Generator: Adobe Illustrator 30.0.0, SVG Export Plug-In . SVG Version: 9.03 Build 0)  -->
<svg version="1.1" baseProfile="basic" id="Layer_2"
	 xmlns="http://www.w3.org/2000/svg" xmlns:xlink="http://www.w3.org/1999/xlink" x="0px" y="0px" viewBox="0 0 24 24"
	 xml:space="preserve">
<path d="M12,3C6.477,3,2,7.029,2,12c0,0.966,0.174,1.894,0.49,2.765c0.273,0.752,0.35,1.56,0.17,2.339l-0.633,2.743
	c-0.15,0.65,0.358,1.226,0.971,1.226c0.104,0,0.212-0.017,0.32-0.053l2.581-0.86c0.306-0.102,0.623-0.152,0.939-0.152
	c0.379,0,0.757,0.072,1.115,0.216C9.189,20.721,10.557,21,12,21c5.523,0,10-4.029,10-9C22,7.029,17.523,3,12,3z M12,19
	c-1.147,0-2.258-0.213-3.303-0.632c-0.595-0.239-1.221-0.36-1.86-0.36c-0.535,0-1.064,0.086-1.572,0.255l-0.889,0.296l0.232-1.006
	c0.26-1.125,0.177-2.325-0.239-3.471C4.125,13.406,4,12.705,4,12c0-3.86,3.589-7,8-7s8,3.14,8,7S16.411,19,12,19z"/>
<path d="M12,3C6.477,3,2,7.029,2,12c0,0.966,0.174,1.894,0.49,2.765c0.273,0.752,0.35,1.56,0.17,2.339l-0.633,2.743
	c-0.15,0.65,0.358,1.226,0.971,1.226c0.104,0,0.212-0.017,0.32-0.053l2.581-0.86c0.306-0.102,0.623-0.152,0.939-0.152
	c0.379,0,0.757,0.072,1.115,0.216C9.189,20.721,10.557,21,12,21c5.523,0,10-4.029,10-9C22,7.029,17.523,3,12,3z M12,19
	c-1.173,0-2.308-0.222-3.373-0.661c-0.566-0.233-1.178-0.331-1.79-0.331c-0.454,0-0.893,0.039-1.876,0.354
	c-0.249,0.08-0.487-0.143-0.427-0.398c0.407-1.729,0.211-2.85-0.164-3.882C4.125,13.406,4,12.705,4,12c0-3.86,3.589-7,8-7
	s8,3.14,8,7S16.411,19,12,19z"/>
</svg>